<svg width="512" height="422" viewBox="0 0 512 422" fill="none" xmlns="http://www.w3.org/2000/svg">
<path d="M383.01 379.714C394.58 379.714 403.98 389.114 403.98 400.684C403.98 412.254 394.58 421.654 383.01 421.654L20.97 421.214C9.4 421.214 0 411.814 0 400.244C0 388.674 9.4 379.274 20.97 379.274L383.01 379.714ZM292.04 140.784C284.13 148.724 271.24 148.774 263.3 140.864C255.36 132.954 255.31 120.064 263.22 112.124L369.33 5.98385C377.24 -1.95615 390.12 -2.00615 398.06 5.90385L506.04 113.814C513.99 121.754 513.99 134.684 506.04 142.624C498.1 150.574 485.17 150.574 477.23 142.624L404.11 69.5139L404.43 275.914C404.43 287.114 395.33 296.214 384.13 296.214C372.93 296.214 363.84 287.114 363.84 275.914L363.52 69.2839L292.04 140.784ZM171.62 40.5938C183.19 40.5938 192.59 50.0038 192.59 61.5738C192.59 73.1338 183.19 82.5439 171.62 82.5439L20.97 82.3839C9.4 82.3839 0 72.9739 0 61.4039C0 49.8439 9.4 40.4338 20.97 40.4338L171.62 40.5938ZM212.95 211.304C224.52 211.304 233.92 220.704 233.92 232.274C233.92 243.844 224.52 253.244 212.95 253.244L20.97 253.014C9.4 253.014 0 243.614 0 232.044C0 220.484 9.4 211.074 20.97 211.074L212.95 211.304Z" fill="#667085"/>
</svg>
