<svg width="30" height="30" viewBox="0 0 30 30" fill="none" xmlns="http://www.w3.org/2000/svg">
<rect width="30" height="30" rx="4" fill="#E7E5FF"/>
<path fill-rule="evenodd" clip-rule="evenodd" d="M6.68919 2C5.75621 2 5 2.75621 5 3.68919V25.3108C5 26.2438 5.75621 27 6.68919 27H22.9054C23.8384 27 24.5946 26.2438 24.5946 25.3108V3.68919C24.5946 2.75621 23.8384 2 22.9054 2H6.68919ZM9.48619 2.67562H6.68919C6.12927 2.67562 5.67561 3.12925 5.67561 3.68919V25.3108C5.67561 25.8707 6.12925 26.3244 6.68919 26.3244H22.9054C23.4653 26.3244 23.919 25.8707 23.919 25.3108V3.68919C23.919 3.12927 23.4653 2.67562 22.9054 2.67562H20.1084L19.6637 4.00965C19.5259 4.42347 19.1384 4.7027 18.7022 4.7027H10.8927C10.4565 4.7027 10.0691 4.42345 9.93122 4.00965L9.48619 2.67562ZM19.3963 2.67562H10.1987L10.5722 3.79591C10.6181 3.93401 10.7473 4.02685 10.8927 4.02685H18.7022C18.8476 4.02685 18.9767 3.934 19.0226 3.79591L19.3963 2.67562Z" fill="#817AF3" fill-opacity="0.8"/>
<path fill-rule="evenodd" clip-rule="evenodd" d="M8.04102 9.4324C8.04102 8.87271 8.49465 8.41882 9.05459 8.41882H10.4058C10.9657 8.41882 11.4194 8.8727 11.4194 9.4324V10.7836C11.4194 11.3435 10.9658 11.7972 10.4058 11.7972H9.05459C8.49467 11.7972 8.04102 11.3436 8.04102 10.7836V9.4324ZM9.05459 9.09446C8.86795 9.09446 8.71666 9.24575 8.71666 9.4324V10.7836C8.71666 10.9703 8.86795 11.1216 9.05459 11.1216H10.4058C10.5925 11.1216 10.7438 10.9703 10.7438 10.7836V9.4324C10.7438 9.24575 10.5925 9.09446 10.4058 9.09446H9.05459Z" fill="#817AF3" fill-opacity="0.8"/>
<path fill-rule="evenodd" clip-rule="evenodd" d="M8.04102 14.5C8.04102 13.9403 8.49465 13.4864 9.05459 13.4864H10.4058C10.9657 13.4864 11.4194 13.9403 11.4194 14.5V15.8512C11.4194 16.4111 10.9658 16.8648 10.4058 16.8648H9.05459C8.49467 16.8648 8.04102 16.4111 8.04102 15.8512V14.5ZM9.05459 14.162C8.86795 14.162 8.71666 14.3133 8.71666 14.5V15.8512C8.71666 16.0378 8.86795 16.1891 9.05459 16.1891H10.4058C10.5925 16.1891 10.7438 16.0378 10.7438 15.8512V14.5C10.7438 14.3133 10.5925 14.162 10.4058 14.162H9.05459Z" fill="#817AF3" fill-opacity="0.8"/>
<path fill-rule="evenodd" clip-rule="evenodd" d="M8.04102 19.5675C8.04102 19.0078 8.49465 18.554 9.05459 18.554H10.4058C10.9657 18.554 11.4194 19.0078 11.4194 19.5675V20.9188C11.4194 21.4787 10.9658 21.9323 10.4058 21.9323H9.05459C8.49467 21.9323 8.04102 21.4787 8.04102 20.9188V19.5675ZM9.05459 19.2296C8.86795 19.2296 8.71666 19.3809 8.71666 19.5675V20.9188C8.71666 21.1054 8.86795 21.2567 9.05459 21.2567H10.4058C10.5925 21.2567 10.7438 21.1054 10.7438 20.9188V19.5675C10.7438 19.3809 10.5925 19.2296 10.4058 19.2296H9.05459Z" fill="#817AF3" fill-opacity="0.8"/>
<path fill-rule="evenodd" clip-rule="evenodd" d="M12.7695 10.108C12.7695 9.92138 12.9208 9.77032 13.1075 9.77032H21.5534C21.7401 9.77032 21.8913 9.92138 21.8913 10.108C21.8913 10.2947 21.7401 10.446 21.5534 10.446H13.1075C12.9208 10.446 12.7695 10.2947 12.7695 10.108Z" fill="#817AF3" fill-opacity="0.8"/>
<path fill-rule="evenodd" clip-rule="evenodd" d="M12.7695 15.1756C12.7695 14.9889 12.9208 14.8379 13.1075 14.8379H21.5534C21.7401 14.8379 21.8913 14.9889 21.8913 15.1756C21.8913 15.3622 21.7401 15.5135 21.5534 15.5135H13.1075C12.9208 15.5135 12.7695 15.3622 12.7695 15.1756Z" fill="#817AF3" fill-opacity="0.8"/>
<path fill-rule="evenodd" clip-rule="evenodd" d="M12.7695 20.2432C12.7695 20.0566 12.9208 19.9055 13.1075 19.9055H21.5534C21.7401 19.9055 21.8913 20.0566 21.8913 20.2432C21.8913 20.4299 21.7401 20.5812 21.5534 20.5812H13.1075C12.9208 20.5812 12.7695 20.4299 12.7695 20.2432Z" fill="#817AF3" fill-opacity="0.8"/>
</svg>
