<svg width="512" height="422" viewBox="0 0 512 422" fill="none" xmlns="http://www.w3.org/2000/svg">
<path d="M383.01 0C394.58 0 403.98 9.4 403.98 20.97C403.98 32.54 394.58 41.94 383.01 41.94L20.97 42.38C9.4 42.38 0 32.97 0 21.4C0 9.84 9.4 0.43 20.97 0.43L383.01 0ZM263.22 309.53C255.31 301.58 255.36 288.7 263.3 280.79C271.24 272.88 284.13 272.93 292.04 280.87L363.52 352.37L363.84 145.74C363.84 134.54 372.93 125.44 384.13 125.44C395.33 125.44 404.43 134.54 404.43 145.74L404.11 352.14L477.23 279.02C485.17 271.08 498.1 271.08 506.04 279.02C513.99 286.97 513.99 299.9 506.04 307.84L398.14 415.74C390.12 423.65 377.24 423.61 369.33 415.66L263.22 309.53ZM171.62 339.11C183.19 339.11 192.59 348.51 192.59 360.08C192.59 371.65 183.19 381.05 171.62 381.05L20.97 381.21C9.4 381.21 0 371.81 0 360.24C0 348.68 9.4 339.27 20.97 339.27L171.62 339.11ZM212.95 168.41C224.52 168.41 233.92 177.81 233.92 189.38C233.92 200.95 224.52 210.35 212.95 210.35L20.97 210.58C9.4 210.58 0 201.17 0 189.6C0 178.04 9.4 168.63 20.97 168.63L212.95 168.41Z" fill="#667085"/>
</svg>
