<svg width="16" height="17" viewBox="0 0 16 17" fill="none" xmlns="http://www.w3.org/2000/svg">
<path d="M4 7.6665H3.33333C2.97971 7.6665 2.64057 7.80698 2.39052 8.05703C2.14048 8.30708 2 8.64622 2 8.99984V14.9998C2 15.3535 2.14048 15.6926 2.39052 15.9426C2.64057 16.1927 2.97971 16.3332 3.33333 16.3332H9.33333C9.68695 16.3332 10.0261 16.1927 10.2761 15.9426C10.5262 15.6926 10.6667 15.3535 10.6667 14.9998V14.3332" stroke="#41AB5D" stroke-linecap="round" stroke-linejoin="round"/>
<path d="M10.0007 6.3334L12.0007 8.3334M12.924 7.39007C13.1865 7.12751 13.3341 6.77139 13.3341 6.40007C13.3341 6.02875 13.1865 5.67264 12.924 5.41007C12.6614 5.14751 12.3053 5 11.934 5C11.5627 5 11.2065 5.14751 10.944 5.41007L5.33398 11.0001V13.0001H7.33398L12.924 7.39007Z" stroke="#41AB5D" stroke-linecap="round" stroke-linejoin="round"/>
</svg>
