<!DOCTYPE svg PUBLIC "-//W3C//DTD SVG 1.1//EN" "http://www.w3.org/Graphics/SVG/1.1/DTD/svg11.dtd">
<!-- Uploaded to: SVG Repo, www.svgrepo.com, Transformed by: SVG Repo Mixer Tools -->
<svg fill="#6F6F6F" width="800px" height="800px" viewBox="0 0 96 96" xmlns="http://www.w3.org/2000/svg">
<g id="SVGRepo_bgCarrier" stroke-width="0"/>
<g id="SVGRepo_tracerCarrier" stroke-linecap="round" stroke-linejoin="round"/>
<g id="SVGRepo_iconCarrier"> <title/> <g> <path d="M90,12H6a5.9966,5.9966,0,0,0-6,6V78a5.9966,5.9966,0,0,0,6,6H90a5.9966,5.9966,0,0,0,6-6V18A5.9966,5.9966,0,0,0,90,12ZM24,72A12.0119,12.0119,0,0,0,12,60V36A12.0119,12.0119,0,0,0,24,24H72A12.0119,12.0119,0,0,0,84,36V60A12.0119,12.0119,0,0,0,72,72Z"/> <path d="M48,36A12,12,0,1,0,60,48,12.0119,12.0119,0,0,0,48,36Z"/> </g> </g>
</svg>